<svg width="75" height="75" viewBox="0 0 75 75" fill="none" xmlns="http://www.w3.org/2000/svg">
<path d="M37.5 71.0938C56.0533 71.0938 71.0938 56.0533 71.0938 37.5C71.0938 18.9467 56.0533 3.90625 37.5 3.90625C18.9467 3.90625 3.90625 18.9467 3.90625 37.5C3.90625 56.0533 18.9467 71.0938 37.5 71.0938Z" stroke="#6EC6CD" stroke-width="3" stroke-linecap="round" stroke-linejoin="round"/>
<path d="M40.875 57.4844C46.9219 53.2656 60.5156 50.2344 67.5937 51.9219M54.2969 17.6875C56.1881 19.161 57.5343 21.2227 58.1225 23.5469C58.7108 25.8711 58.5076 28.325 57.545 30.5208C56.5825 32.7165 54.9155 34.5288 52.8077 35.6711C50.6998 36.8134 48.2714 37.2205 45.9062 36.8281C47.2014 37.8372 48.7099 38.5371 50.3166 38.8745C51.9234 39.2119 53.586 39.1779 55.1776 38.775C56.7693 38.3722 58.2479 37.6112 59.5006 36.55C60.7534 35.4888 61.7473 34.1556 62.4065 32.6519C63.0656 31.1482 63.3727 29.5138 63.3041 27.8735C63.2356 26.2331 62.7934 24.63 62.0111 23.1865C61.2289 21.7431 60.1273 20.4973 58.7904 19.5443C57.4535 18.5913 55.9165 17.9562 54.2969 17.6875Z" stroke="#6EC6CD" stroke-width="3" stroke-linecap="round" stroke-linejoin="round"/>
<path d="M26.5781 19.0313C27.0096 19.0313 27.3594 18.6815 27.3594 18.25C27.3594 17.8185 27.0096 17.4688 26.5781 17.4688C26.1467 17.4688 25.7969 17.8185 25.7969 18.25C25.7969 18.6815 26.1467 19.0313 26.5781 19.0313Z" stroke="#6EC6CD" stroke-width="3" stroke-linecap="round" stroke-linejoin="round"/>
<path d="M22.9844 39.9688C23.4158 39.9688 23.7656 39.619 23.7656 39.1875C23.7656 38.756 23.4158 38.4062 22.9844 38.4062C22.5529 38.4062 22.2031 38.756 22.2031 39.1875C22.2031 39.619 22.5529 39.9688 22.9844 39.9688Z" stroke="#6EC6CD" stroke-width="3" stroke-linecap="round" stroke-linejoin="round"/>
<path d="M33 37.3438C33.8629 37.3438 34.5625 36.6442 34.5625 35.7813C34.5625 34.9183 33.8629 34.2188 33 34.2188C32.1371 34.2188 31.4375 34.9183 31.4375 35.7813C31.4375 36.6442 32.1371 37.3438 33 37.3438Z" stroke="#6EC6CD" stroke-width="3" stroke-linecap="round" stroke-linejoin="round"/>
<path d="M16.875 20.1719C17.7379 20.1719 18.4375 19.4723 18.4375 18.6094C18.4375 17.7464 17.7379 17.0469 16.875 17.0469C16.0121 17.0469 15.3125 17.7464 15.3125 18.6094C15.3125 19.4723 16.0121 20.1719 16.875 20.1719Z" stroke="#6EC6CD" stroke-width="3" stroke-linecap="round" stroke-linejoin="round"/>
<path d="M47.1875 69.0156L29.5 38.3906L23.9063 48.0781L21.3125 43.5781L18.75 48.0156L8.65625 30.5781L4.42188 37.9063M37.5 23.6719H45.3125M41.375 19.7656V27.5781" stroke="#6EC6CD" stroke-width="3" stroke-linecap="round" stroke-linejoin="round"/>
</svg>
