<svg width="75" height="75" viewBox="0 0 75 75" fill="none" xmlns="http://www.w3.org/2000/svg">
<path fill-rule="evenodd" clip-rule="evenodd" d="M37.5 37.7059C43.8852 37.7059 49.6705 39.8212 53.9148 42.7792C57.9477 45.5939 61.3636 49.7767 61.3636 54.2768C61.3636 56.7469 60.3102 58.794 58.65 60.3156C57.0886 61.752 55.05 62.6834 52.95 63.318C48.7534 64.5906 43.2273 65 37.5 65C31.7727 65 26.2466 64.5906 22.05 63.318C19.95 62.6834 17.9114 61.752 16.3466 60.3156C14.6932 58.7974 13.6364 56.7503 13.6364 54.2802C13.6364 49.7801 17.0523 45.5973 21.0852 42.7826C25.3295 39.8212 31.1148 37.7059 37.5 37.7059ZM37.5 44.5294C32.5909 44.5294 28.1489 46.1671 24.9886 48.3745C21.617 50.7286 20.4545 53.1236 20.4545 54.2768C20.4545 55.314 21.6545 55.9622 22.7455 56.3716L23.4443 56.6105L24.0239 56.7879C27.2284 57.7568 31.933 58.1765 37.5 58.1765C42.6409 58.1765 47.042 57.8182 50.2091 57.0028L51.2455 56.706L51.8932 56.5013C53.0625 56.1021 54.5455 55.43 54.5455 54.2768C54.5455 53.1236 53.383 50.7286 50.0114 48.3745C46.8545 46.1705 42.4091 44.5294 37.5 44.5294ZM61.3636 41.1176C64.9227 41.1176 68.1545 42.2947 70.5443 43.9596C72.7261 45.4847 75 48.0196 75 51.1107C75 55.6654 70.5784 57.2962 66.6034 57.866L65.5807 57.9922L64.5955 58.0775L64.125 58.1048C64.5409 56.9278 64.7727 55.6484 64.7727 54.2768C64.7707 53.2561 64.6483 52.2392 64.408 51.2472C65.7239 51.1448 66.8045 50.9742 67.6091 50.732C67.9636 50.6228 67.6432 50.2885 67.2682 49.9985L66.9034 49.7323L66.6443 49.5584C65.6211 48.8594 64.4673 48.3743 63.2523 48.1322C61.9568 45.5393 59.9659 43.2944 57.8455 41.5032C59.0008 41.2477 60.1804 41.1185 61.3636 41.1176ZM13.6364 41.1176C14.8568 41.1222 16.0295 41.2507 17.1545 41.5032C15.0341 43.2944 13.0432 45.5393 11.7477 48.1322C10.5327 48.3743 9.37894 48.8594 8.35568 49.5584L7.91932 49.8586C7.48636 50.1725 6.97841 50.6092 7.39091 50.732C8.19545 50.9742 9.27614 51.1482 10.5955 51.2472C10.3507 52.2384 10.2271 53.2558 10.2273 54.2768C10.2273 55.6484 10.4591 56.9278 10.875 58.1048L9.92045 58.0366L8.91136 57.9342C4.81364 57.4327 0 55.8633 0 51.1107C0 48.0231 2.27045 45.4847 4.45568 43.9596C7.159 42.1064 10.3596 41.1156 13.6364 41.1176ZM59.6591 20.6471C61.9195 20.6471 64.0872 21.5457 65.6856 23.1453C67.2839 24.7448 68.1818 26.9143 68.1818 29.1765C68.1818 31.4386 67.2839 33.6081 65.6856 35.2077C64.0872 36.8072 61.9195 37.7059 59.6591 37.7059C57.3987 37.7059 55.2309 36.8072 53.6326 35.2077C52.0343 33.6081 51.1364 31.4386 51.1364 29.1765C51.1364 26.9143 52.0343 24.7448 53.6326 23.1453C55.2309 21.5457 57.3987 20.6471 59.6591 20.6471ZM15.3409 20.6471C17.6013 20.6471 19.7691 21.5457 21.3674 23.1453C22.9657 24.7448 23.8636 26.9143 23.8636 29.1765C23.8636 31.4386 22.9657 33.6081 21.3674 35.2077C19.7691 36.8072 17.6013 37.7059 15.3409 37.7059C13.0805 37.7059 10.9128 36.8072 9.31443 35.2077C7.71611 33.6081 6.81818 31.4386 6.81818 29.1765C6.81818 26.9143 7.71611 24.7448 9.31443 23.1453C10.9128 21.5457 13.0805 20.6471 15.3409 20.6471ZM37.5 7C41.1166 7 44.5851 8.43781 47.1424 10.9971C49.6997 13.5565 51.1364 17.0276 51.1364 20.6471C51.1364 24.2665 49.6997 27.7377 47.1424 30.297C44.5851 32.8563 41.1166 34.2941 37.5 34.2941C33.8834 34.2941 30.4149 32.8563 27.8576 30.297C25.3003 27.7377 23.8636 24.2665 23.8636 20.6471C23.8636 17.0276 25.3003 13.5565 27.8576 10.9971C30.4149 8.43781 33.8834 7 37.5 7ZM59.6591 27.4706C59.207 27.4706 58.7735 27.6503 58.4538 27.9702C58.1341 28.2901 57.9545 28.724 57.9545 29.1765C57.9545 29.6289 58.1341 30.0628 58.4538 30.3827C58.7735 30.7026 59.207 30.8824 59.6591 30.8824C60.1112 30.8824 60.5447 30.7026 60.8644 30.3827C61.1841 30.0628 61.3636 29.6289 61.3636 29.1765C61.3636 28.724 61.1841 28.2901 60.8644 27.9702C60.5447 27.6503 60.1112 27.4706 59.6591 27.4706ZM15.3409 27.4706C14.8888 27.4706 14.4553 27.6503 14.1356 27.9702C13.8159 28.2901 13.6364 28.724 13.6364 29.1765C13.6364 29.6289 13.8159 30.0628 14.1356 30.3827C14.4553 30.7026 14.8888 30.8824 15.3409 30.8824C15.793 30.8824 16.2265 30.7026 16.5462 30.3827C16.8659 30.0628 17.0455 29.6289 17.0455 29.1765C17.0455 28.724 16.8659 28.2901 16.5462 27.9702C16.2265 27.6503 15.793 27.4706 15.3409 27.4706ZM37.5 13.8235C35.6917 13.8235 33.9575 14.5424 32.6788 15.8221C31.4002 17.1018 30.6818 18.8373 30.6818 20.6471C30.6818 22.4568 31.4002 24.1924 32.6788 25.472C33.9575 26.7517 35.6917 27.4706 37.5 27.4706C39.3083 27.4706 41.0425 26.7517 42.3212 25.472C43.5998 24.1924 44.3182 22.4568 44.3182 20.6471C44.3182 18.8373 43.5998 17.1018 42.3212 15.8221C41.0425 14.5424 39.3083 13.8235 37.5 13.8235Z" fill="#2051A5"/>
<path d="M35 24C35.2778 24.3333 36.1667 25 37.5 25C38.8333 25 39.7222 24.3333 40 24" stroke="#2051A5" stroke-width="2" stroke-linecap="round"/>
</svg>
